<svg id="_6_Categories" data-name="6 Categories" xmlns="http://www.w3.org/2000/svg" xmlns:xlink="http://www.w3.org/1999/xlink" viewBox="0 0 113.93 113.29"><defs><style>.cls-1{fill:none;}.cls-2{clip-path:url(#clip-path);}.cls-3{fill:#dcd6d6;}</style><clipPath id="clip-path" transform="translate(-88.73 -93.26)"><rect class="cls-1" x="88.73" y="93.26" width="113.93" height="113.48"/></clipPath></defs><title>icon_6categories</title><g class="cls-2"><path class="cls-3" d="M88.73,124.77h25.21V93.26H88.73Zm18.54-23.17v14.83H95.41V101.6m0,0" transform="translate(-88.73 -93.26)"/><path class="cls-3" d="M122,93.26v31.51h80.7V93.26Zm74,23.17H128.63V101.6H196Zm0,0" transform="translate(-88.73 -93.26)"/></g><path class="cls-3" d="M88.73,165.66h25.21V134.15H88.73Zm6.68-23.17h11.86v14.82H95.41Zm0,0" transform="translate(-88.73 -93.26)"/><path class="cls-3" d="M122,165.66h80.7V134.15H122Zm6.67-23.17H196v14.82H128.63Zm0,0" transform="translate(-88.73 -93.26)"/><path class="cls-3" d="M88.73,206.55h25.21V175H88.73Zm6.68-23.17h11.86V198.2H95.41Zm0,0" transform="translate(-88.73 -93.26)"/><path class="cls-3" d="M122,206.55h80.7V175H122Zm6.67-23.17H196V198.2H128.63Zm0,0" transform="translate(-88.73 -93.26)"/></svg>