<svg id="_7_Organizations" data-name="7 Organizations" xmlns="http://www.w3.org/2000/svg" viewBox="0 0 118.81 118.81"><defs><style>.cls-1{fill:#dcd6d6;}</style></defs><title>icon_7organizations</title><path class="cls-1" d="M197.84,101.83a10.41,10.41,0,0,0-3.84.73,10.45,10.45,0,0,0-20.16,0,10.45,10.45,0,0,0-3.84-.73H143.07a27,27,0,0,0-18.19-7h-18a10.45,10.45,0,0,0-9.71,14.29,10.44,10.44,0,0,0,0,20.15A10.46,10.46,0,0,0,103.4,143v17.08a27,27,0,0,0-7,18.19v18A10.45,10.45,0,0,0,110.73,206a10.44,10.44,0,0,0,20.15,0,10.46,10.46,0,0,0,3.85.73h19.73a27.81,27.81,0,0,0,18.42,7h18a10.45,10.45,0,0,0,9.71-14.29,10.44,10.44,0,0,0,0-20.15,10.46,10.46,0,0,0,.73-3.85V155.65a27.81,27.81,0,0,0,7-18.42v-25A10.45,10.45,0,0,0,197.84,101.83Zm-101.4,17.4a3.48,3.48,0,0,1,3.48-3.48H120.8a3.48,3.48,0,1,0,0-7H106.88a3.48,3.48,0,1,1,0-7h18a20.18,20.18,0,0,1,14.35,5.94,3.45,3.45,0,0,0,2.46,1h18.46a10.73,10.73,0,0,0-.6,3.51v13.92a3.7,3.7,0,0,1-3.71,3.48h-7a3.48,3.48,0,0,0-2.89,1.54l-8.35,12.46a10.48,10.48,0,0,0-9.88-7H106.88a3.48,3.48,0,1,1,0-7H120.8a3.48,3.48,0,1,0,0-7H99.92A3.48,3.48,0,0,1,96.44,119.23Zm58.87,50.7-16.1-16.1,10.2-15.22,16.1,16.1Zm-31,33.3a3.48,3.48,0,1,1-7,0V182.35a3.48,3.48,0,1,0-7,0v13.92a3.48,3.48,0,0,1-7,0v-18a20.18,20.18,0,0,1,5.94-14.35,3.47,3.47,0,0,0,1-2.46V143.59h17.4a3.49,3.49,0,0,1,3.48,3.48v7.2a3.46,3.46,0,0,0,1,2.48h0L147.52,172a10.73,10.73,0,0,0-6.08,2.92,10.19,10.19,0,0,0-3.23,7.44v13.92a3.49,3.49,0,0,1-7,0V182.35a3.48,3.48,0,0,0-7,0Zm73.56-10.44H177a3.48,3.48,0,0,0,0,7h13.92a3.48,3.48,0,1,1,0,7h-18a20.7,20.7,0,0,1-14.58-5.94,3.47,3.47,0,0,0-2.46-1H144.57a10.3,10.3,0,0,0,.6-3.48V182.35a3.69,3.69,0,0,1,3.71-3.48h7a3.49,3.49,0,0,0,2.89-1.55l8.35-12.46a10.46,10.46,0,0,0,9.88,7h13.92a3.49,3.49,0,0,1,0,7H177a3.48,3.48,0,0,0,0,7h20.88a3.48,3.48,0,0,1,0,7Zm3.48-55.56a20.7,20.7,0,0,1-5.94,14.58,3.47,3.47,0,0,0-1,2.46v11.27a10.3,10.3,0,0,0-3.48-.6H177a3.48,3.48,0,0,1-3.48-3.48v-7.19a3.45,3.45,0,0,0-1-2.49L157.2,136.55a10.79,10.79,0,0,0,6.09-2.92,10.23,10.23,0,0,0,3.23-7.44V112.27a3.48,3.48,0,0,1,7,0v13.92a3.48,3.48,0,1,0,7,0V105.31a3.48,3.48,0,0,1,7,0v20.88a3.48,3.48,0,0,0,7,0V112.27a3.48,3.48,0,0,1,7,0Z" transform="translate(-89.48 -94.86)"/></svg>