<svg id="Layer_14" data-name="Layer 14" xmlns="http://www.w3.org/2000/svg" xmlns:xlink="http://www.w3.org/1999/xlink" viewBox="0 0 40.78 46.08"><defs><style>.cls-1{fill:none;}.cls-2{clip-path:url(#clip-path);}.cls-3{fill:#a8d1d4;}</style><clipPath id="clip-path" transform="translate(-10.68 -6.19)"><rect class="cls-1" x="10.68" y="6.19" width="40.86" height="46.08"/></clipPath></defs><title>icon_location</title><g class="cls-2"><path class="cls-3" d="M51.42,50.6c0-.13-3.71-16.21-3.9-17.07a1.38,1.38,0,0,0-1.33-1.06H38c3.47-7,5.16-11.62,5.16-14.24a12,12,0,0,0-24.09,0c0,2.62,1.69,7.28,5.16,14.24H15.94a1.38,1.38,0,0,0-1.33,1.06c0,.07-1.55,6.8-3.9,17.07A1.37,1.37,0,0,0,12,52.27H50.09a1.37,1.37,0,0,0,1.33-1.67ZM19.93,39.91l-.66,4.91H14.83L16,39.91Zm2.75,0h5.43c1.05,1.9,1.77,3.12,1.78,3.15a1.37,1.37,0,0,0,2.35,0S33,41.81,34,39.91h5.43l.66,4.91H22Zm19.52,0h4l1.12,4.91H42.86Zm2.9-4.72.46,2H41.83l-.27-2Zm-6.29,0,.27,2H35.5c.35-.64.7-1.31,1.06-2Zm-17.07-17a9.32,9.32,0,0,1,18.64,0c0,4.43-7.15,17.56-9.32,21.4-2.19-3.9-9.32-17-9.32-21.4Zm3.83,17,1.05,2H23.05l.27-2Zm-8.54,0h3.54l-.27,2H16.57ZM14.2,47.54h4.7l-.27,2H13.75Zm7.18,2,.27-2H40.48l.26,2Zm22.12,0-.27-2h4.69l.46,2Zm0,0" transform="translate(-10.68 -6.19)"/></g><path class="cls-3" d="M37.26,17.65a6.2,6.2,0,1,0-6.2,6.2,6.21,6.21,0,0,0,6.2-6.2Zm-9.67,0a3.48,3.48,0,1,1,3.47,3.47,3.47,3.47,0,0,1-3.47-3.47Zm0,0" transform="translate(-10.68 -6.19)"/></svg>