<svg id="Alerts" xmlns="http://www.w3.org/2000/svg" viewBox="0 0 41.19 45.64"><defs><style>.cls-1{fill:#a8d1d4;}</style></defs><title>Icon_alert</title><path class="cls-1" d="M50.52,47.74l-4.09-6h0A25.79,25.79,0,0,1,42,27.31V24.92a12.09,12.09,0,0,0-8-11.36V7.45h-8v6.14a12.55,12.55,0,0,0-8,11.79v1.93a25.79,25.79,0,0,1-4.47,14.48l-4.09,6H23.38a6.68,6.68,0,0,0,13.1,0ZM28.59,10.12h2.67V13a12.37,12.37,0,0,0-2.51,0l-.16,0Zm-8,15.26A9.67,9.67,0,0,1,29,15.61a9.36,9.36,0,0,1,10.29,9.31v2.39A28.49,28.49,0,0,0,41,37H18.84a28.5,28.5,0,0,0,1.73-9.73ZM17.71,39.72H42.14a36.54,36.54,0,0,0,3.3,5.35h-31A37.37,37.37,0,0,0,17.71,39.72ZM29.93,50.41a4,4,0,0,1-3.78-2.67h7.56A4,4,0,0,1,29.93,50.41Z" transform="translate(-9.33 -7.45)"/></svg>