<svg id="_1_Home" data-name="1 Home" xmlns="http://www.w3.org/2000/svg" viewBox="0 0 145.94 130.14"><defs><style>.cls-1{fill:#dcd6d6;}</style></defs><title>1_overview</title><path class="cls-1" d="M86.6,162.43H98.49V210a5.1,5.1,0,0,0,5.09,5.09H138.4a5.1,5.1,0,0,0,5.09-5.09V175.16h21.23V210a5.1,5.1,0,0,0,5.09,5.09h33.12A5.1,5.1,0,0,0,208,210V162.43h14.44a5.07,5.07,0,0,0,3.56-8.66l-66.4-67.34a5.08,5.08,0,0,0-7.13-.08L83.12,153.68a5.11,5.11,0,0,0-1.19,5.61,5,5,0,0,0,4.67,3.14Zm69.29-65.21,54.34,55h-7.3a5.11,5.11,0,0,0-5.1,5.09v47.55H174.91V170.07a5.11,5.11,0,0,0-5.1-5.09H138.4a5.11,5.11,0,0,0-5.1,5.09v34.81H108.68V157.33a5.11,5.11,0,0,0-5.1-5.09H99.17Zm0,0" transform="translate(-81.56 -84.93)"/></svg>