<svg id="Layer_13" data-name="Layer 13" xmlns="http://www.w3.org/2000/svg" viewBox="0 0 41.36 41.57"><defs><style>.cls-1{fill:#a8d1d4;}</style></defs><title>icon_categories</title><path class="cls-1" d="M16.44,13.43" transform="translate(-14.02 -9.96)"/><path class="cls-1" d="M26.08,10.4V21.84h29.3V10.4ZM53,18.81H28.5V13.43H53Zm0,0" transform="translate(-14.02 -9.96)"/><path class="cls-1" d="M14,36.68h9.15V25.25H14Zm2.42-8.41h4.31v5.39H16.44Zm0,0" transform="translate(-14.02 -9.96)"/><path class="cls-1" d="M14,21.4h9.15V10H14ZM16.44,13h4.31v5.38H16.44Zm0,0" transform="translate(-14.02 -9.96)"/><path class="cls-1" d="M26.08,36.68h29.3V25.25H26.08Zm2.42-8.41H53v5.39H28.5Zm0,0" transform="translate(-14.02 -9.96)"/><path class="cls-1" d="M14,51.53h9.15V40.09H14Zm2.42-8.41h4.31V48.5H16.44Zm0,0" transform="translate(-14.02 -9.96)"/><path class="cls-1" d="M26.08,51.53h29.3V40.09H26.08Zm2.42-8.41H53V48.5H28.5Zm0,0" transform="translate(-14.02 -9.96)"/></svg>