<svg id="Children" xmlns="http://www.w3.org/2000/svg" viewBox="0 0 55.4 44.86"><defs><style>.cls-1{fill:#a8d1d4;stroke:#a8d1d4;stroke-miterlimit:10;}</style></defs><title>icon_children</title><path class="cls-1" d="M30.19,51.6c-11.26,0-20.42-9.83-20.42-21.93S18.93,7.74,30.19,7.74s20.42,9.84,20.42,21.93S41.45,51.6,30.19,51.6Zm0-42.31c-10.41,0-18.87,9.15-18.87,20.38s8.46,20.38,18.87,20.38,18.87-9.14,18.87-20.38S40.6,9.29,30.19,9.29Z" transform="translate(-2.49 -7.24)"/><path class="cls-1" d="M30.18,19.17a.92.92,0,0,1-.28-.05l-4.82-1.87-4.82,1.87a.77.77,0,0,1-.56,0l-5.1-2a.77.77,0,1,1,.56-1.44L20,17.56,24.8,15.7a.77.77,0,0,1,.56,0l4.82,1.86L35,15.7a.77.77,0,0,1,.56,0l4.83,1.86,4.82-1.86a.77.77,0,1,1,.56,1.44l-5.11,2a.75.75,0,0,1-.55,0l-4.83-1.87-4.83,1.87A.87.87,0,0,1,30.18,19.17Z" transform="translate(-2.49 -7.24)"/><path class="cls-1" d="M30.19,45.26a10.89,10.89,0,0,1-9.69-5.89.76.76,0,0,1,.33-1,.78.78,0,0,1,1.05.33,9.36,9.36,0,0,0,16.62,0,.78.78,0,0,1,1-.33.76.76,0,0,1,.33,1A10.89,10.89,0,0,1,30.19,45.26Z" transform="translate(-2.49 -7.24)"/><path class="cls-1" d="M24.17,33a.77.77,0,0,1-.77-.78,2.21,2.21,0,0,0-4.42,0,.78.78,0,1,1-1.55,0,3.76,3.76,0,1,1,7.52,0A.78.78,0,0,1,24.17,33Z" transform="translate(-2.49 -7.24)"/><path class="cls-1" d="M42.18,33a.78.78,0,0,1-.78-.78,2.21,2.21,0,0,0-4.42,0,.77.77,0,0,1-.77.78.78.78,0,0,1-.78-.78,3.76,3.76,0,0,1,7.52,0A.78.78,0,0,1,42.18,33Z" transform="translate(-2.49 -7.24)"/><path class="cls-1" d="M9.32,35.2a6.34,6.34,0,0,1,0-12.67,6.23,6.23,0,0,1,2.3.44.77.77,0,1,1-.56,1.44,4.68,4.68,0,0,0-1.74-.33,4.79,4.79,0,0,0,0,9.57,4.91,4.91,0,0,0,1.43-.22.78.78,0,1,1,.47,1.48A6.39,6.39,0,0,1,9.32,35.2Z" transform="translate(-2.49 -7.24)"/><path class="cls-1" d="M51.06,35.2a6.39,6.39,0,0,1-1.9-.29.78.78,0,1,1,.47-1.48,4.91,4.91,0,0,0,1.43.22,4.79,4.79,0,0,0,0-9.57,4.68,4.68,0,0,0-1.74.33A.77.77,0,1,1,48.76,23a6.23,6.23,0,0,1,2.3-.44,6.34,6.34,0,0,1,0,12.67Z" transform="translate(-2.49 -7.24)"/></svg>