<svg id="_2_Account" data-name="2 Account" xmlns="http://www.w3.org/2000/svg" viewBox="0 0 135.67 135.67"><defs><style>.cls-1{fill:#dcd6d6;}</style></defs><title>2_icon_accout</title><path class="cls-1" d="M149.49,217.83A67.83,67.83,0,1,0,81.65,150a67.91,67.91,0,0,0,67.84,67.83Zm0-9a58.59,58.59,0,0,1-42.33-18.09h84.65a58.55,58.55,0,0,1-42.32,18.09Zm-6.77-65.21a13.4,13.4,0,0,1-6.8-11.67v-9a13.63,13.63,0,0,1,4.41-10,13.45,13.45,0,0,1,10.39-3.51c6.91.6,12.34,7,12.34,14.46v8.1a13.42,13.42,0,0,1-6.8,11.67L154,144.89v13l21.82,6.23a13.65,13.65,0,0,1,9.84,13.06v4.44H113.31v-4.44a13.63,13.63,0,0,1,9.84-13.05L145,157.93v-13Zm6.77-52.37a58.75,58.75,0,0,1,45.22,96.3V177.22a22.72,22.72,0,0,0-16.4-21.75l-15.25-4.36v-1.2a22.66,22.66,0,0,0,9-18v-8.1c0-12.16-9-22.46-20.6-23.46a22.6,22.6,0,0,0-24.62,22.52v9a22.66,22.66,0,0,0,9,18v1.2l-15.26,4.36a22.72,22.72,0,0,0-16.39,21.75v10.29a58.75,58.75,0,0,1,45.22-96.3Zm0,0" transform="translate(-81.65 -82.17)"/></svg>