<svg id="Computer_Tech" data-name="Computer Tech" xmlns="http://www.w3.org/2000/svg" viewBox="0 0 26.89 53.54"><defs><style>.cls-1{fill:#a8d1d4;stroke:#a8d1d4;stroke-miterlimit:10;stroke-width:0.75px;}</style></defs><title>icon_computer tech</title><path class="cls-1" d="M29.41,56.8A13.1,13.1,0,0,1,16.33,43.72V29.43a13.08,13.08,0,0,1,26.15,0V43.72A13.1,13.1,0,0,1,29.41,56.8Zm0-39a11.61,11.61,0,0,0-11.6,11.59V43.72a11.6,11.6,0,1,0,23.19,0V29.43A11.6,11.6,0,0,0,29.41,17.84Z" transform="translate(-15.96 -3.63)"/><path class="cls-1" d="M29.41,17.84a.74.74,0,0,1-.74-.74V13.18a2.32,2.32,0,0,0-2.31-2.31H21.69A3.79,3.79,0,0,1,17.9,7.08V4.75a.74.74,0,0,1,1.48,0V7.08a2.3,2.3,0,0,0,2.31,2.31h4.67a3.79,3.79,0,0,1,3.79,3.79V17.1A.74.74,0,0,1,29.41,17.84Z" transform="translate(-15.96 -3.63)"/><path class="cls-1" d="M29.41,34.3a3.7,3.7,0,0,1-3.7-3.7v-5a3.7,3.7,0,1,1,7.4,0v5A3.7,3.7,0,0,1,29.41,34.3Zm0-10.88a2.23,2.23,0,0,0-2.23,2.22v5a2.23,2.23,0,0,0,4.45,0v-5A2.23,2.23,0,0,0,29.41,23.42Z" transform="translate(-15.96 -3.63)"/><path class="cls-1" d="M29.41,31.34a.87.87,0,0,1-.28-.05.74.74,0,0,1-.46-.68v-5a.74.74,0,0,1,.74-.74h0a.74.74,0,0,1,.74.74v5a.72.72,0,0,1-.21.52A.74.74,0,0,1,29.41,31.34Z" transform="translate(-15.96 -3.63)"/><path class="cls-1" d="M29.41,23.42a.74.74,0,0,1-.74-.74V17.1a.74.74,0,0,1,1.48,0v5.58A.74.74,0,0,1,29.41,23.42Z" transform="translate(-15.96 -3.63)"/><path class="cls-1" d="M29.41,36.7a.74.74,0,0,1-.74-.74v-2.4a.74.74,0,0,1,1.48,0V36A.74.74,0,0,1,29.41,36.7Z" transform="translate(-15.96 -3.63)"/><path class="cls-1" d="M29.41,36.7A40.18,40.18,0,0,1,16.83,35a.74.74,0,0,1,.49-1.39,39.34,39.34,0,0,0,12.09,1.61,39.23,39.23,0,0,0,12.08-1.61A.74.74,0,1,1,42,35,40.56,40.56,0,0,1,29.41,36.7Z" transform="translate(-15.96 -3.63)"/></svg>