<svg id="_8_Photo" data-name="8 Photo" xmlns="http://www.w3.org/2000/svg" viewBox="0 0 125.49 115.45"><defs><style>.cls-1{fill:#dcd6d6;}.cls-2{fill:none;stroke:#dcd6d6;stroke-miterlimit:10;stroke-width:12px;}</style></defs><title>icon_8photos</title><path class="cls-1" d="M213.22,90.9a9.46,9.46,0,0,0-7.39-3.54H101.26a9.46,9.46,0,0,0-7.39,3.54,12.47,12.47,0,0,0-3.07,8.49v91.4a12.49,12.49,0,0,0,3.07,8.49,9.45,9.45,0,0,0,7.39,3.53H205.83a9.45,9.45,0,0,0,7.39-3.53,12.49,12.49,0,0,0,3.07-8.49V99.39a12.47,12.47,0,0,0-3.07-8.49Zm-5.29,99.89a2.48,2.48,0,0,1-.63,1.69,1.89,1.89,0,0,1-1.47.71H101.26a1.89,1.89,0,0,1-1.47-.71,2.52,2.52,0,0,1-.62-1.69V99.39a2.45,2.45,0,0,1,.62-1.69,1.86,1.86,0,0,1,1.47-.71H205.83a1.86,1.86,0,0,1,1.47.71,2.46,2.46,0,0,1,.63,1.69Zm0,0" transform="translate(-90.8 -87.36)"/><path class="cls-2" d="M120.08,136.72a12.5,12.5,0,1,0-8.89-3.66,12.1,12.1,0,0,0,8.89,3.66Zm0,0" transform="translate(-90.8 -87.36)"/><path class="cls-2" d="M138.91,155.54l-10.46-10.45L107.53,166v12.55h92V149.27l-27.19-27.19Zm0,0" transform="translate(-90.8 -87.36)"/></svg>