<svg id="_3_Activity" data-name="3 Activity" xmlns="http://www.w3.org/2000/svg" viewBox="0 0 140.8 140.8"><defs><style>.cls-1{fill:#dcd6d6;}</style></defs><title>3 icon activity</title><path class="cls-1" d="M102.77,145.6a12.32,12.32,0,0,0,8.58-3.47l12.14,6.07a12.82,12.82,0,0,0-.1,1.53,12.38,12.38,0,1,0,23.54-5.34l16.5-16.5A12.37,12.37,0,0,0,180.57,113l14.34-10.75A12.37,12.37,0,1,0,190,95.68l-14.34,10.75a12.37,12.37,0,0,0-18,15.63l-16.5,16.5a12.36,12.36,0,0,0-13.92,2.26L115,134.75a12.79,12.79,0,0,0,.1-1.52,12.38,12.38,0,1,0-12.37,12.37Zm99-57.75A4.13,4.13,0,1,1,197.64,92a4.13,4.13,0,0,1,4.13-4.13Zm-33,24.75a4.13,4.13,0,1,1-4.13,4.13,4.13,4.13,0,0,1,4.13-4.13Zm-33,33a4.13,4.13,0,1,1-4.13,4.13,4.13,4.13,0,0,1,4.13-4.13Zm-33-16.5a4.13,4.13,0,1,1-4.13,4.13,4.13,4.13,0,0,1,4.13-4.13Zm0,0" transform="translate(-81.87 -79.6)"/><path class="cls-1" d="M218.54,212.15h-4.4V125a4.13,4.13,0,0,0-4.12-4.13h-16.5a4.13,4.13,0,0,0-4.13,4.13v87.17h-8.25V149.73A4.13,4.13,0,0,0,177,145.6h-16.5a4.13,4.13,0,0,0-4.13,4.13v62.42h-8.25V182.73A4.13,4.13,0,0,0,144,178.6h-16.5a4.13,4.13,0,0,0-4.13,4.13v29.42h-8.25V166.22A4.13,4.13,0,0,0,111,162.1H94.52a4.13,4.13,0,0,0-4.13,4.12v45.93H86a4.13,4.13,0,0,0,0,8.25H218.54a4.13,4.13,0,1,0,0-8.25Zm-20.9-83.05h8.25v83.05h-8.25Zm-33,24.75h8.25v58.3h-8.25Zm-33,33h8.25v25.3h-8.25Zm-33-16.5h8.25v41.8H98.64Zm0,0" transform="translate(-81.87 -79.6)"/></svg>