<svg id="Date_Range" data-name="Date Range" xmlns="http://www.w3.org/2000/svg" viewBox="0 0 45.91 45.88"><defs><style>.cls-1{fill:#a8d1d4;}</style></defs><title>icon_date_range</title><path class="cls-1" d="M49.08,9.28H47V6.08H43.74v3.2H20.27V6.08H16v3.2H14c-3,.16-5.42,5.53-5.42,5.53V46.36S11,51.74,14,52h21.3l-3.77-3.2h-18A1.79,1.79,0,0,1,11.74,47V23.15H51.21v6.27l3.2-4V14.81a5.31,5.31,0,0,0-5.33-5.37ZM12.8,18.89V14.28a1.8,1.8,0,0,1,1.8-1.79H16v4.26h3.2V12.49H43.74v4.26H47V12.49h2.47a1.79,1.79,0,0,1,1.79,1.79v4.61ZM40.54,29.56h-3.2v-3.2h3.2ZM47,26.36v3.2H43.74v-3.2ZM19.2,37H16V33.82h3.2Zm6.41,0h-3.2V33.82h3.2Zm4.26-3.21h3.2V37h-3.2Zm7.47,0h3.2V37h-3.2ZM16,41.29h3.2v3.2H16Zm6.41,0h3.2v3.2h-3.2Zm29.37-7.6,2.67,2.4-14,15.62L31.26,43l2.47-2.59,6.49,6.17ZM19.2,29.56H16v-3.2h3.2Zm6.41,0h-3.2v-3.2h3.2Zm7.46,0h-3.2v-3.2h3.2Zm.24.49" transform="translate(-8.53 -6.08)"/></svg>