<svg id="_4_Calendar" data-name="4 Calendar" xmlns="http://www.w3.org/2000/svg" viewBox="0 0 126.48 126.39"><defs><style>.cls-1{fill:#dcd6d6;}</style></defs><title>icon_4calendar</title><path class="cls-1" d="M200.83,95.66h-5.89V86.85h-8.82v8.81H121.46V86.85H109.7v8.81H104c-8.16.42-14.91,15.24-14.91,15.24v86.9s6.75,14.82,14.91,15.43h58.68l-10.38-8.81H102.88A4.94,4.94,0,0,1,98,199.48V133.87H206.7v17.27l8.82-10.91V110.9a14.65,14.65,0,0,0-14.69-14.82Zm-100,26.46v-12.7a4.94,4.94,0,0,1,4.94-4.94h3.88v11.76h8.82V104.48h67.6v11.76h8.82V104.48h6.82a4.94,4.94,0,0,1,4.94,4.94v12.7Zm76.43,29.39h-8.82v-8.82h8.82Zm17.63-8.82v8.82h-8.82v-8.82Zm-76.42,29.39H109.7v-8.81h8.82Zm17.64,0h-8.82v-8.81h8.82Zm11.75-8.81h8.82v8.81h-8.82Zm20.58,0h8.82v8.81h-8.82ZM109.7,183.84h8.82v8.82H109.7Zm17.64,0h8.82v8.82h-8.82Zm80.92-20.94,7.35,6.6-38.65,43-25.23-24,6.81-7.15,17.86,17Zm-89.74-11.39H109.7v-8.82h8.82Zm17.64,0h-8.82v-8.82h8.82Zm20.57,0h-8.82v-8.82h8.82Zm.64,1.36" transform="translate(-89.13 -86.85)"/></svg>