<svg id="Community" xmlns="http://www.w3.org/2000/svg" viewBox="0 0 58.86 54.81"><defs><style>.cls-1{fill:#a8d1d4;}</style></defs><title>icon_community</title><path class="cls-1" d="M15.86,58.1h-.25a1.06,1.06,0,0,1-1-.73,13.13,13.13,0,0,1-.21-1.91A24.85,24.85,0,0,0,14,51.92C9.68,49.07,2.6,44.24,2.16,43.32S1.23,33.77.94,28.65a.86.86,0,0,1,0-.16c.14-1.06,1.21-1.81,2.74-1.91,1.37-.1,2.93.42,3.31,1.79a49,49,0,0,1,.62,6c.15,2,.35,4.78.52,5.4C9.18,41,12.93,44,14,43.71a5.07,5.07,0,0,0,1.08-.42l-1-.61c-3.31-2-5-3.22-5.26-4.37-.45-2.28-.61-3.76-.06-4.56a1.28,1.28,0,0,1,.85-.55c1.58-.26,15.18,10,15.61,11,.21.46,2.59,10,1.87,11.3S17.8,58.1,15.86,58.1ZM3.71,42.56c.9.93,7.76,5.65,11.34,8,.63.42.8,1.44,1.05,4.73,0,.36.06.77.09,1.09a49.15,49.15,0,0,0,9.41-1.8,61.29,61.29,0,0,0-1.89-9.68c-.74-1-11-8.45-13.55-9.84A14.61,14.61,0,0,0,10.55,38c.25.7,3.31,2.56,4.47,3.25s1.6,1,1.79,1.26A1.35,1.35,0,0,1,17,43.72c-.25.69-1,1.19-2.45,1.63-2.68.81-7.72-4.51-7.77-4.56-.36-.44-.48-1.33-.84-6.29a55.66,55.66,0,0,0-.56-5.67c-.09-.33-.66-.57-1.36-.56a1.93,1.93,0,0,0-1.35.42C3,34.73,3.47,41.47,3.71,42.56ZM25.84,54.49ZM14.1,52h0ZM9.7,34.88Z" transform="translate(-0.94 -3.29)"/><path class="cls-1" d="M9.8,34.89a.85.85,0,0,1-.85-.8,35.06,35.06,0,0,0-.39-3.92,1.91,1.91,0,0,0-1.26.27.85.85,0,0,1-1.7.11c-.11-.94.64-1.73,1.9-2s2.35.09,2.64.94A31.09,31.09,0,0,1,10.66,34a.86.86,0,0,1-.81.9Z" transform="translate(-0.94 -3.29)"/><path class="cls-1" d="M44.88,58.1c-1.94,0-10.58-1.33-11.28-2.56s1.67-10.84,1.87-11.3c.43-1,14-11.3,15.61-11a1.28,1.28,0,0,1,.85.55c.55.8.39,2.28-.06,4.56-.23,1.15-1.95,2.37-5.26,4.37l-1,.61a5.07,5.07,0,0,0,1.08.42c1.09.34,4.86-2.76,5.9-3.94.17-.62.37-3.37.52-5.4a49,49,0,0,1,.62-6c.38-1.37,1.94-1.89,3.31-1.79,1.53.1,2.6.85,2.74,1.91a.86.86,0,0,1,0,.16c-.29,5.12-.83,13.84-1.23,14.67s-7.51,5.75-11.8,8.6a24.85,24.85,0,0,0-.43,3.53,13.13,13.13,0,0,1-.21,1.91,1.06,1.06,0,0,1-1,.73Zm-9.74-3.49a49.15,49.15,0,0,0,9.41,1.8c0-.32.06-.73.09-1.09.25-3.29.42-4.31,1-4.73,3.6-2.39,10.5-7.14,11.35-8.05.22-.9.7-7.74,1.05-13.85a1.93,1.93,0,0,0-1.35-.42c-.68,0-1.27.23-1.36.56a55.66,55.66,0,0,0-.56,5.67c-.36,5-.48,5.85-.84,6.29,0,.05-5.09,5.36-7.77,4.56-1.45-.44-2.2-.94-2.45-1.63a1.35,1.35,0,0,1,.17-1.24c.19-.28.53-.49,1.79-1.26S49.94,38.67,50.2,38a15.09,15.09,0,0,0,.38-2.87C48,36.48,37.77,43.88,37,45A64.25,64.25,0,0,0,35.14,54.61Zm-.24-.12M51,34.88" transform="translate(-0.94 -3.29)"/><path class="cls-1" d="M50.94,34.89h0a.86.86,0,0,1-.81-.9,31.09,31.09,0,0,1,.52-4.51c.29-.85,1.34-1.23,2.64-.94s2,1.07,1.9,2a.85.85,0,0,1-1.7-.11,1.89,1.89,0,0,0-1.26-.27,35.06,35.06,0,0,0-.39,3.92A.85.85,0,0,1,50.94,34.89Z" transform="translate(-0.94 -3.29)"/><path class="cls-1" d="M29.41,36.12a.91.91,0,0,1-.54-.19C28.27,35.45,14.1,24,12,17.2a11.65,11.65,0,0,1,.85-9.77,8.39,8.39,0,0,1,6.35-4.06A11.58,11.58,0,0,1,29.41,7.76,11.6,11.6,0,0,1,39.65,3.37,8.39,8.39,0,0,1,46,7.43a11.7,11.7,0,0,1,.83,9.82c-2.12,6.76-16.3,18.2-16.9,18.68A.86.86,0,0,1,29.41,36.12ZM20.49,5a8.63,8.63,0,0,0-1.12.07,6.66,6.66,0,0,0-5.1,3.25,10,10,0,0,0-.69,8.33C15.35,22.3,26.79,32,29.41,34.16,32,32,43.47,22.31,45.23,16.69a10.08,10.08,0,0,0-.68-8.37,6.68,6.68,0,0,0-5.1-3.25c-5.86-.72-9.18,4.36-9.32,4.57a.86.86,0,0,1-.72.4h0a.84.84,0,0,1-.72-.4C28.56,9.44,25.65,5,20.49,5Z" transform="translate(-0.94 -3.29)"/></svg>