<svg id="Others" xmlns="http://www.w3.org/2000/svg" viewBox="0 0 55.23 44.95"><defs><style>.cls-1{fill:#a8d1d4;}</style></defs><title>icon_others</title><path class="cls-1" d="M14.8,52.07a1,1,0,0,1-.34-.07.9.9,0,0,1-.54-.81V44H9.68a7,7,0,0,1-7-7V14.12a7,7,0,0,1,7-7H50.89a7,7,0,0,1,7,7V37a7,7,0,0,1-7,7H23.22l-7.8,7.8A.87.87,0,0,1,14.8,52.07ZM9.68,8.87a5.26,5.26,0,0,0-5.25,5.25V37a5.26,5.26,0,0,0,5.25,5.26H14.8a.88.88,0,0,1,.88.87v5.94l6.56-6.56a.87.87,0,0,1,.62-.25h28A5.27,5.27,0,0,0,56.15,37V14.12a5.26,5.26,0,0,0-5.26-5.25Z" transform="translate(-2.68 -7.11)"/><circle class="cls-1" cx="17.21" cy="19.14" r="3.67"/><circle class="cls-1" cx="28.22" cy="19.14" r="3.67"/><circle class="cls-1" cx="37.81" cy="19.14" r="3.67"/></svg>