<svg id="Goals" xmlns="http://www.w3.org/2000/svg" viewBox="0 0 51.2 51.2"><defs><style>.cls-1{fill:#a8d1d4;}</style></defs><title>icon_goal</title><path class="cls-1" d="M55.6,11l-7.68,1.1L49,4.4l-5.84,5.84a24.82,24.82,0,1,0,6.58,6.58ZM43.49,45A20.16,20.16,0,1,1,41.75,15L36.2,20.51a12.43,12.43,0,1,0,3.29,3.29L45,18.25A20.2,20.2,0,0,1,43.49,45ZM37,30.78a7.76,7.76,0,1,1-4.17-6.88L28.2,28.51a2.32,2.32,0,0,0,0,3.29,2.33,2.33,0,0,0,3.29,0l4.61-4.61A7.72,7.72,0,0,1,37,30.78Z" transform="translate(-4.4 -4.4)"/></svg>