<svg id="Email" xmlns="http://www.w3.org/2000/svg" viewBox="0 0 38.59 43.9"><defs><style>.cls-1{fill:#a8d1d4;}</style></defs><title>icon_email</title><path class="cls-1" d="M48.76,25.37a1.25,1.25,0,0,0-.38-.9L43.62,19.7V9.77a1.29,1.29,0,0,0-1.29-1.29H16.6a1.28,1.28,0,0,0-1.28,1.29V19.7l-4.77,4.77h0a1.31,1.31,0,0,0-.37.89h0V48.53A3.87,3.87,0,0,0,14,52.39H44.9a3.87,3.87,0,0,0,3.86-3.86V25.38Zm-3.1,0-2,2V23.34ZM41,11.06v9.17h0V30l-7,7H24.86l-7-7V20.23h0V11.06ZM15.32,27.42l-2-2,2-2ZM12.75,48V28.48l9.75,9.76Zm1.82,1.81L24.86,39.52h9.22L44.37,49.81ZM46.19,48l-9.76-9.76,9.76-9.76Z" transform="translate(-10.17 -8.48)"/><path class="cls-1" d="M34.43,21.87" transform="translate(-10.17 -8.48)"/><path class="cls-1" d="M37.88,14.22,27.4,23.75l-3.29-3.28-1.27,1.28,4.65,4.65L39.26,15.58Zm0,0" transform="translate(-10.17 -8.48)"/></svg>