<svg id="Phone" xmlns="http://www.w3.org/2000/svg" viewBox="0 0 50.05 50.02"><defs><style>.cls-1{fill:#a8d1d4;}</style></defs><title>icon_phone</title><path class="cls-1" d="M44.42,29.9a1.26,1.26,0,0,0-1.27,1.27,1.31,1.31,0,0,0,.37.9,1.28,1.28,0,0,0,1.8,0,1.31,1.31,0,0,0,.37-.9,1.29,1.29,0,0,0-.37-.9,1.26,1.26,0,0,0-.9-.37Zm0,0" transform="translate(-5.15 -4.51)"/><path class="cls-1" d="M32.53,15.1a1.26,1.26,0,0,0,1,1.5,1.25,1.25,0,0,0,1.5-1,1.27,1.27,0,1,0-2.48-.53Zm0,0" transform="translate(-5.15 -4.51)"/><path class="cls-1" d="M41.59,20.05a1.27,1.27,0,0,0-.33,1.77,1.29,1.29,0,0,0,1.05.56,1.25,1.25,0,0,0,.71-.23,1.27,1.27,0,0,0,.34-1.76,1.29,1.29,0,0,0-1.77-.34Zm0,0" transform="translate(-5.15 -4.51)"/><path class="cls-1" d="M37.54,16.68a1.28,1.28,0,0,0,.34,1.77,1.25,1.25,0,0,0,.71.21,1.27,1.27,0,1,0-1.05-2Zm0,0" transform="translate(-5.15 -4.51)"/><path class="cls-1" d="M43.1,26.18a1.25,1.25,0,0,0,1.23,1,1.31,1.31,0,0,0,.27,0,1.27,1.27,0,0,0-.52-2.49,1.28,1.28,0,0,0-1,1.51Zm0,0" transform="translate(-5.15 -4.51)"/><path class="cls-1" d="M28.53,14a1.25,1.25,0,0,0-.9.37,1.29,1.29,0,0,0-.37.9,1.31,1.31,0,0,0,.37.9,1.29,1.29,0,0,0,.9.37,1.26,1.26,0,0,0,1.27-1.27,1.29,1.29,0,0,0-.37-.9,1.26,1.26,0,0,0-.9-.37Zm0,0" transform="translate(-5.15 -4.51)"/><path class="cls-1" d="M53.6,30.2a1.31,1.31,0,0,0-.9.37,1.32,1.32,0,0,0-.37.9,1.29,1.29,0,0,0,.37.9,1.26,1.26,0,0,0,.9.37,1.25,1.25,0,0,0,.9-.37,1.29,1.29,0,0,0,.37-.9,1.32,1.32,0,0,0-.37-.9,1.28,1.28,0,0,0-.9-.37Zm0,0" transform="translate(-5.15 -4.51)"/><path class="cls-1" d="M52.77,17.25a1.27,1.27,0,0,0-2.28,1.14,1.27,1.27,0,0,0,1.13.7,1.33,1.33,0,0,0,.57-.14,1.26,1.26,0,0,0,.58-1.7Zm0,0" transform="translate(-5.15 -4.51)"/><path class="cls-1" d="M41.32,9.2a1.17,1.17,0,0,0,.57.14A1.24,1.24,0,0,0,43,8.64a1.27,1.27,0,1,0-1.7.56Zm0,0" transform="translate(-5.15 -4.51)"/><path class="cls-1" d="M32.84,7.05h0a1.27,1.27,0,0,0,0-2.54,1.24,1.24,0,0,0-1.31,1.21,1.3,1.3,0,0,0,1.22,1.33Zm0,0" transform="translate(-5.15 -4.51)"/><path class="cls-1" d="M37.19,7.67a1.17,1.17,0,0,0,.32,0,1.27,1.27,0,1,0-.32,0Zm0,0" transform="translate(-5.15 -4.51)"/><path class="cls-1" d="M50.1,13.1a1.27,1.27,0,0,0-2,1.59,1.29,1.29,0,0,0,1,.48,1.19,1.19,0,0,0,.79-.29,1.27,1.27,0,0,0,.2-1.78Zm0,0" transform="translate(-5.15 -4.51)"/><path class="cls-1" d="M52.66,26.86a1.27,1.27,0,0,0,1.27,1.23h0a1.27,1.27,0,1,0-.08-2.54,1.25,1.25,0,0,0-1.23,1.31Zm0,0" transform="translate(-5.15 -4.51)"/><path class="cls-1" d="M53.26,23.47a1.13,1.13,0,0,0,.32,0A1.27,1.27,0,1,0,52,22.5a1.25,1.25,0,0,0,1.22,1Zm0,0" transform="translate(-5.15 -4.51)"/><path class="cls-1" d="M45,11.58a1.27,1.27,0,0,0,.8.29,1.22,1.22,0,0,0,1-.48,1.27,1.27,0,1,0-1.78.19Zm0,0" transform="translate(-5.15 -4.51)"/><path class="cls-1" d="M28.23,7.36a1.25,1.25,0,0,0,.9-.37,1.29,1.29,0,0,0,.37-.9,1.31,1.31,0,0,0-.37-.9,1.29,1.29,0,0,0-.9-.37A1.26,1.26,0,0,0,27,6.09a1.29,1.29,0,0,0,.37.9,1.22,1.22,0,0,0,.9.37Zm0,0" transform="translate(-5.15 -4.51)"/><path class="cls-1" d="M41.22,37.25a4.38,4.38,0,0,0-6.5,0l-.26.24c-.93.92-1.88,1.87-2.81,2.83L31.12,40a13.66,13.66,0,0,1-1.21-.64A33,33,0,0,1,22,32.16,18.74,18.74,0,0,1,19.32,28c.83-.8,1.63-1.62,2.43-2.42l.61-.61a4.4,4.4,0,0,0,0-6.62L18.92,15c-.6-.6-1.21-1.23-1.84-1.84a4.62,4.62,0,0,0-3.26-1.44,4.63,4.63,0,0,0-3.25,1.44L9.23,14.46c-.63.65-1.29,1.31-2,1.94a6.66,6.66,0,0,0-2.08,4.45A16.8,16.8,0,0,0,6.45,28a41.4,41.4,0,0,0,7.34,12.26A45.73,45.73,0,0,0,28.82,52a22.51,22.51,0,0,0,8.58,2.49l.59,0a7.12,7.12,0,0,0,5.53-2.37c.6-.67,1.24-1.29,1.93-2,.33-.34.69-.68,1-1a4.39,4.39,0,0,0,0-6.59C44.75,40.75,43,39,41.22,37.25Zm3.5,10.1c-.33.34-.68.67-1,1-.68.67-1.39,1.34-2,2.08A4.71,4.71,0,0,1,37.58,52,19.75,19.75,0,0,1,30,49.71a43.1,43.1,0,0,1-14.2-11.1A38.9,38.9,0,0,1,8.87,27.1,14.17,14.17,0,0,1,7.76,21a4,4,0,0,1,1.3-2.8c.69-.66,1.36-1.33,2-2,.43-.43.88-.89,1.31-1.31a2.22,2.22,0,0,1,1.47-.71,2.18,2.18,0,0,1,1.48.71c.62.6,1.23,1.21,1.82,1.82l.85.84.79.79c.6.59,1.21,1.19,1.8,1.79a1.9,1.9,0,0,1,0,3l-.61.63c-.86.86-1.75,1.75-2.63,2.61a1.92,1.92,0,0,0-.46,2.27A20.28,20.28,0,0,0,20,33.78a35.38,35.38,0,0,0,8.57,7.79c.48.29,1,.54,1.44.77l.8.4a1.89,1.89,0,0,0,2.42-.4c1-1,2-2,3-3l.26-.24A2.15,2.15,0,0,1,38,38.35a2.24,2.24,0,0,1,1.47.71c1.72,1.71,3.51,3.49,5.3,5.29a1.91,1.91,0,0,1-.06,3Zm0,0" transform="translate(-5.15 -4.51)"/></svg>