<svg id="Layer_1" data-name="Layer 1" xmlns="http://www.w3.org/2000/svg" viewBox="0 0 325.91 157.31"><defs><style>.cls-1{fill:#43b4b7;}.cls-2{fill:#3c3f54;}.cls-3{fill:#3a9ea1;}.cls-4{fill:#fff;}.cls-5{fill:#c0e6eb;}.cls-6{fill:#d1ecef;}.cls-7{fill:#307e81;}.cls-8{fill:#f37875;}.cls-25,.cls-27,.cls-28,.cls-29,.cls-30,.cls-31,.cls-32,.cls-9{fill:none;}.cls-9{stroke:#3d3f54;stroke-width:2px;}.cls-28,.cls-29,.cls-9{stroke-miterlimit:10;}.cls-10{fill:#f58c88;}.cls-11{fill:#3d3f54;}.cls-12{fill:#bd7673;}.cls-13{fill:#e08c89;}.cls-14{fill:#f15f5d;}.cls-15{fill:#eb4844;}.cls-16{fill:#f69e9c;}.cls-17{fill:#5f6276;}.cls-18{fill:#f58b88;}.cls-19{fill:#f8aead;}.cls-20{fill:#f6b391;}.cls-21{fill:#e89f7b;}.cls-22{fill:#292b3b;}.cls-23{fill:#1a1c2e;}.cls-24{fill:#91c8c9;}.cls-25,.cls-28,.cls-29{stroke:#3c3f54;}.cls-25,.cls-27,.cls-30,.cls-31,.cls-32{stroke-linecap:round;stroke-linejoin:round;}.cls-25,.cls-29,.cls-30{stroke-width:5px;}.cls-26{fill:#379194;}.cls-27{stroke:#fff;}.cls-28{stroke-width:3px;}.cls-30,.cls-31,.cls-32{stroke:#494b58;}.cls-31{stroke-width:4.79px;}.cls-32{stroke-width:4.39px;}.cls-33{fill:#ee986e;}.cls-34{fill:#412312;}.cls-35{fill:#a0d9db;}.cls-36{fill:#8dc2c4;}.cls-37{fill:#f26d6b;}</style></defs><title>Volunteering Image</title><path class="cls-1" d="M802.63,57.28A78.78,78.78,0,0,0,782,60a93.46,93.46,0,0,0-72.91-34.33c-44,0-80.76,29.57-90,69.14a19.23,19.23,0,0,0-3.75-.37c-10,0-18.17,7.81-18.17,17.46a16.83,16.83,0,0,0,.37,3.5c-20,4.93-34.74,22.35-34.74,43.09a43,43,0,0,0,6.53,22.8H856.6a71.22,71.22,0,0,0,21.85-51.17C878.45,89.9,844.51,57.28,802.63,57.28Z" transform="translate(-552.55 -24.51)"/><path class="cls-2" d="M703.71,71.57s.24-5.26,0-8.26-2.39-4.2-3.32-5.6-.61-2.42,0-2.31,3.24,2,4.22,1.87,3.39,1.35,3.93,3.4,3.47,10,3.73,11.81-3,5.72-3,5.72Z" transform="translate(-552.55 -24.51)"/><path class="cls-3" d="M667.35,150.05a26.18,26.18,0,0,0-25.18,19h50.36A26.2,26.2,0,0,0,667.35,150.05Z" transform="translate(-552.55 -24.51)"/><path class="cls-3" d="M736,150.05a26.2,26.2,0,0,0-25.18,19h50.36A26.19,26.19,0,0,0,736,150.05Z" transform="translate(-552.55 -24.51)"/><path class="cls-3" d="M703.31,141.92a37.4,37.4,0,0,0-36,27.11h71.93A37.42,37.42,0,0,0,703.31,141.92Z" transform="translate(-552.55 -24.51)"/><path class="cls-4" d="M579.18,46.42A27.71,27.71,0,0,0,552.55,66.5h53.27A27.71,27.71,0,0,0,579.18,46.42Z" transform="translate(-552.55 -24.51)"/><path class="cls-4" d="M651.86,46.42A27.71,27.71,0,0,0,625.22,66.5h53.27A27.7,27.7,0,0,0,651.86,46.42Z" transform="translate(-552.55 -24.51)"/><path class="cls-4" d="M617.23,37.82A39.59,39.59,0,0,0,579.18,66.5h76.1A39.57,39.57,0,0,0,617.23,37.82Z" transform="translate(-552.55 -24.51)"/><path class="cls-5" d="M811.69,82.87a16.11,16.11,0,0,0-15.48,11.68h31A16.1,16.1,0,0,0,811.69,82.87Z" transform="translate(-552.55 -24.51)"/><path class="cls-5" d="M853.93,82.87a16.1,16.1,0,0,0-15.48,11.68h31A16.11,16.11,0,0,0,853.93,82.87Z" transform="translate(-552.55 -24.51)"/><path class="cls-5" d="M833.8,77.87a23,23,0,0,0-22.11,16.68h44.23A23,23,0,0,0,833.8,77.87Z" transform="translate(-552.55 -24.51)"/><path class="cls-6" d="M654.15,28.81a13.85,13.85,0,0,0-13.31,10h26.62A13.86,13.86,0,0,0,654.15,28.81Z" transform="translate(-552.55 -24.51)"/><path class="cls-6" d="M690.46,28.81a13.84,13.84,0,0,0-13.31,10h26.61A13.83,13.83,0,0,0,690.46,28.81Z" transform="translate(-552.55 -24.51)"/><path class="cls-6" d="M673.16,24.51a19.78,19.78,0,0,0-19,14.33h38A19.78,19.78,0,0,0,673.16,24.51Z" transform="translate(-552.55 -24.51)"/><path class="cls-7" d="M603.71,64.79a8.46,8.46,0,0,0-8.13,6.13h16.26A8.46,8.46,0,0,0,603.71,64.79Z" transform="translate(-552.55 -24.51)"/><path class="cls-7" d="M625.89,64.79a8.46,8.46,0,0,0-8.13,6.13H634A8.45,8.45,0,0,0,625.89,64.79Z" transform="translate(-552.55 -24.51)"/><path class="cls-7" d="M615.32,62.17a12.08,12.08,0,0,0-11.61,8.75h23.23A12.09,12.09,0,0,0,615.32,62.17Z" transform="translate(-552.55 -24.51)"/><path class="cls-7" d="M800,109.34a9.15,9.15,0,0,0-8.79,6.64h17.59A9.16,9.16,0,0,0,800,109.34Z" transform="translate(-552.55 -24.51)"/><path class="cls-7" d="M824,109.34a9.16,9.16,0,0,0-8.8,6.64h17.59A9.15,9.15,0,0,0,824,109.34Z" transform="translate(-552.55 -24.51)"/><path class="cls-7" d="M812.6,106.5A13.09,13.09,0,0,0,800,116h25.14A13.08,13.08,0,0,0,812.6,106.5Z" transform="translate(-552.55 -24.51)"/><rect class="cls-7" x="79.08" y="144.33" width="178.84" height="11.22" rx="5.61"/><path class="cls-8" d="M813.42,92.79a8.46,8.46,0,0,0-8.13,6.13h16.26A8.45,8.45,0,0,0,813.42,92.79Z" transform="translate(-552.55 -24.51)"/><path class="cls-8" d="M835.61,92.79a8.45,8.45,0,0,0-8.13,6.13h16.26A8.46,8.46,0,0,0,835.61,92.79Z" transform="translate(-552.55 -24.51)"/><path class="cls-8" d="M825,90.17a12.09,12.09,0,0,0-11.62,8.75h23.23A12.07,12.07,0,0,0,825,90.17Z" transform="translate(-552.55 -24.51)"/><line class="cls-9" x1="129.11" y1="49.03" x2="129.11" y2="20.59"/><path class="cls-10" d="M680.83,50.5a10,10,0,0,0,4-.73,6.83,6.83,0,0,1,5,0,11.11,11.11,0,0,0,7.92,0,6.83,6.83,0,0,1,5,0,11.11,11.11,0,0,0,7.92,0,6,6,0,0,1,2.49-.47l-1.05-2,1.05-2.17a10,10,0,0,0-4,.74,7,7,0,0,1-5,0,11,11,0,0,0-7.92,0,7,7,0,0,1-5,0,11,11,0,0,0-7.92,0,5.93,5.93,0,0,1-2.49.46Z" transform="translate(-552.55 -24.51)"/><circle class="cls-11" cx="129.11" cy="49.03" r="0.75"/><circle class="cls-11" cx="129.11" cy="20.57" r="0.54"/><polygon class="cls-12" points="188.08 127.31 168.37 123.26 168.37 142.97 188.08 147.02 188.08 127.31"/><polygon class="cls-13" points="148.85 127.31 168.56 123.26 168.56 142.97 148.85 147.02 148.85 127.31"/><path class="cls-14" d="M717.89,75.4a30.41,30.41,0,0,0-43,43L721,164.55v-86Z" transform="translate(-552.55 -24.51)"/><path class="cls-15" d="M767.19,118.4l-14.93,14.93L721,164.55v-86l3.15-3.15a30.41,30.41,0,0,1,43,43Z" transform="translate(-552.55 -24.51)"/><path class="cls-16" d="M616.73,166.15a13.2,13.2,0,0,0-12.68,9.56h25.36A13.2,13.2,0,0,0,616.73,166.15Z" transform="translate(-552.55 -24.51)"/><path class="cls-16" d="M651.32,166.15a13.2,13.2,0,0,0-12.68,9.56H664A13.2,13.2,0,0,0,651.32,166.15Z" transform="translate(-552.55 -24.51)"/><path class="cls-16" d="M634.84,162.06a18.84,18.84,0,0,0-18.11,13.65H653A18.84,18.84,0,0,0,634.84,162.06Z" transform="translate(-552.55 -24.51)"/><path class="cls-2" d="M717.32,132.92H714a2.77,2.77,0,0,1-5.4,0h-9.43v5.89h5.39v17.37h12.81V138.81h5.38v-5.89Z" transform="translate(-552.55 -24.51)"/><path class="cls-17" d="M727.62,145.4h-3.37a2.77,2.77,0,0,1-5.4,0h-9.43v5.88h5.39v17.38h12.81V151.28H733V145.4Z" transform="translate(-552.55 -24.51)"/><polygon class="cls-18" points="148.85 147.01 168.56 151.06 168.56 131.35 148.85 127.3 148.85 147.01"/><polygon class="cls-19" points="138.25 133.67 157.96 137.73 168.56 131.35 148.85 127.3 138.25 133.67"/><path class="cls-4" d="M671.2,173.52l-.11-.05a.6.6,0,0,1-.23-.83l2.19-3.8a.62.62,0,0,1,.84-.22.6.6,0,0,1,.22.83l-2.19,3.8A.61.61,0,0,1,671.2,173.52Z" transform="translate(-552.55 -24.51)"/><path class="cls-20" d="M671,172.12s-1.36.88-1.11,1.17,4.07,4.15,4.27,4c.67-.55-2-4.18-2.38-4.42S671.21,172,671,172.12Z" transform="translate(-552.55 -24.51)"/><path class="cls-4" d="M700.18,132.78s3.12.36,3.54,1-2.59.67-4.1-.49Z" transform="translate(-552.55 -24.51)"/><path class="cls-21" d="M700.36,132.46c0,.51-.09,1-.17,1.5-8-1.19-11.35-2.5-13.87-10.42-.38-1.21.08-1.42,1-1.51h0c1-.09,1.15.26,1.48,1.32C691,130.3,693.64,130.73,700.36,132.46Z" transform="translate(-552.55 -24.51)"/><path class="cls-4" d="M693.85,176l-.11.05a.6.6,0,0,1-.76-.41l-1.25-4.21a.6.6,0,0,1,.42-.75.59.59,0,0,1,.75.41l1.25,4.2A.61.61,0,0,1,693.85,176Z" transform="translate(-552.55 -24.51)"/><path class="cls-22" d="M694,173a16.67,16.67,0,0,1-1.74,1c-3.69-10.86-5.33-25-9.54-34.65,1.62-.63,3.25-1.24,4.87-1.86C691.49,148.93,688.5,159.76,694,173Z" transform="translate(-552.55 -24.51)"/><path class="cls-2" d="M673,171.87c-.59-.29-1.18-.6-1.75-.94,6.8-11.59,11.07-19.55,10.3-33.44,1.74-.23,3.48-.43,5.22-.63C686.76,150.17,680,161.1,673,171.87Z" transform="translate(-552.55 -24.51)"/><path class="cls-23" d="M688.3,113.82a1.61,1.61,0,0,0-1.54.94,1.17,1.17,0,0,0,.79,1.41,2,2,0,0,0,1.93-1C689.69,114.61,689.06,113.89,688.3,113.82Z" transform="translate(-552.55 -24.51)"/><path class="cls-23" d="M686.16,117.84a3.68,3.68,0,0,0-4.16-.21,2.71,2.71,0,0,0-.31,3.73,4.17,4.17,0,0,0,5.13.65C688.05,121.25,687.53,118.94,686.16,117.84Z" transform="translate(-552.55 -24.51)"/><path class="cls-23" d="M687,116.86a2.66,2.66,0,0,0-3-.22,2,2,0,0,0-.16,2.74,3.31,3.31,0,0,0,3.59.56C688.25,119.33,688,117.69,687,116.86Z" transform="translate(-552.55 -24.51)"/><path class="cls-4" d="M685.73,118c.78,1.67,2.58,2.49,3.6,2s.88-2.07.09-3.74-2-2.13-3-1.65S684.94,116.28,685.73,118Z" transform="translate(-552.55 -24.51)"/><path class="cls-4" d="M685.24,118.88c.18.39.8.71,1.08.57s.21-.48,0-.86-.58-.65-.87-.52A.56.56,0,0,0,685.24,118.88Z" transform="translate(-552.55 -24.51)"/><path class="cls-23" d="M685,117a3,3,0,0,1,.51-2,2.16,2.16,0,0,1,3.35-.15s.65,1-.63,1.69-1.31-.11-1.71.8-1.18.65-1.25.85Z" transform="translate(-552.55 -24.51)"/><path class="cls-20" d="M688.53,141a6.72,6.72,0,0,1-3.84-1.21,22,22,0,0,0-3.18-1.23c-.74-4.52.28-11.87,2-14.77,1.55-2.55,1.56-2.13,2.12-2.36a2.13,2.13,0,0,1,2.31.36l0,0c.72.69.74,2.19.85,3.75s.71,1.28-.67,4C687.61,130.73,688.57,138.68,688.53,141Z" transform="translate(-552.55 -24.51)"/><path class="cls-4" d="M686.31,118.2l1.93.17a30.37,30.37,0,0,1-.56,3.68c-.12.28-.62.32-1.11.1s-.72-.54-.68-.81h0A23.88,23.88,0,0,0,686.31,118.2Z" transform="translate(-552.55 -24.51)"/><path class="cls-20" d="M692.73,175.28s-.38,1.57,0,1.61,5.81.21,5.84,0c.11-.86-4.33-1.65-4.77-1.57S692.77,175.05,692.73,175.28Z" transform="translate(-552.55 -24.51)"/><path class="cls-4" d="M697.33,135.67s3.23-.69,3.87-.16-2.36,1.53-4.24.88Z" transform="translate(-552.55 -24.51)"/><path class="cls-21" d="M698.09,135.4c0,.53.11,1,.16,1.56-10.41,0-12.14-2.58-14.72-12.14-.4-1.46,2.11-2.21,2.53.3C687.52,133.93,689.06,134.28,698.09,135.4Z" transform="translate(-552.55 -24.51)"/><path class="cls-6" d="M710.78,139.57a1.34,1.34,0,1,0-1.9,1.9l2,2v-3.79Z" transform="translate(-552.55 -24.51)"/><path class="cls-24" d="M711.05,139.57a1.34,1.34,0,1,1,1.9,1.9l-2,2v-3.79Z" transform="translate(-552.55 -24.51)"/><path class="cls-2" d="M760.82,45.35a1.34,1.34,0,1,0-1.9,1.9l2,2v-3.8Z" transform="translate(-552.55 -24.51)"/><path class="cls-22" d="M761.1,45.35a1.34,1.34,0,0,1,1.9,1.9l-2,2v-3.8Z" transform="translate(-552.55 -24.51)"/><path class="cls-2" d="M654.08,134.83a1.33,1.33,0,0,0-1.9,0,1.35,1.35,0,0,0,0,1.9l2,2V135Z" transform="translate(-552.55 -24.51)"/><path class="cls-22" d="M654.36,134.83a1.33,1.33,0,0,1,1.9,0,1.35,1.35,0,0,1,0,1.9l-2,2V135Z" transform="translate(-552.55 -24.51)"/><line class="cls-25" x1="183.52" y1="49.43" x2="183.52" y2="17.5"/><line class="cls-25" x1="183.52" y1="30.12" x2="188.81" y2="24.83"/><line class="cls-25" x1="183.52" y1="35.72" x2="178.04" y2="30.24"/><path class="cls-7" d="M736.07,33.87V50.16s3.4-3.64,3.4-8.14S736.07,33.87,736.07,33.87Z" transform="translate(-552.55 -24.51)"/><path class="cls-26" d="M732.67,42c0,4.5,3.4,8.14,3.4,8.14V33.87S732.67,37.51,732.67,42Z" transform="translate(-552.55 -24.51)"/><path class="cls-7" d="M754.3,36.44,739.47,51.27S745.88,51.05,750,47,754.3,36.44,754.3,36.44Z" transform="translate(-552.55 -24.51)"/><path class="cls-26" d="M743.79,40.76c-4.1,4.1-4.32,10.51-4.32,10.51L754.3,36.44S747.89,36.67,743.79,40.76Z" transform="translate(-552.55 -24.51)"/><path class="cls-7" d="M731.74,55.91,714.64,38.8s.26,7.4,5,12.12S731.74,55.91,731.74,55.91Z" transform="translate(-552.55 -24.51)"/><path class="cls-26" d="M726.76,43.79c-4.73-4.73-12.12-5-12.12-5l17.1,17.11S731.48,48.51,726.76,43.79Z" transform="translate(-552.55 -24.51)"/><line class="cls-25" x1="183.52" y1="40.32" x2="186.14" y2="37.7"/><path class="cls-8" d="M743.23,74A5.47,5.47,0,0,0,738,78h10.5A5.46,5.46,0,0,0,743.23,74Z" transform="translate(-552.55 -24.51)"/><path class="cls-8" d="M736.41,72.3A7.82,7.82,0,0,0,728.9,78h15A7.81,7.81,0,0,0,736.41,72.3Z" transform="translate(-552.55 -24.51)"/><path class="cls-27" d="M748.48,62l-2.39-.36a4.71,4.71,0,0,0-5.28,3.57l-4.4,18.42" transform="translate(-552.55 -24.51)"/><path class="cls-27" d="M749.94,64.07l-3.36-.5a3.64,3.64,0,0,0-4.08,2.75L737.87,85.7" transform="translate(-552.55 -24.51)"/><rect class="cls-2" x="757.15" y="55.94" width="9.51" height="14.36" transform="translate(-484.83 358.91) rotate(-29.5)"/><path class="cls-28" d="M768.7,58a4.81,4.81,0,1,1-6.55-1.82A4.81,4.81,0,0,1,768.7,58Z" transform="translate(-552.55 -24.51)"/><polygon class="cls-2" points="199.11 39.72 194.71 35.24 193.03 41.29 199.11 39.72"/><line class="cls-29" x1="206.47" y1="41.75" x2="196.65" y2="39.03"/><line class="cls-28" x1="199.11" y1="39.71" x2="203.21" y2="35.41"/><path class="cls-14" d="M760.3,60.58a1.41,1.41,0,1,0-.75,2.71l2.9.8-2-3.45Z" transform="translate(-552.55 -24.51)"/><path class="cls-15" d="M760.55,60.44a1.41,1.41,0,1,1,2.71.75l-.81,2.9-2-3.45Z" transform="translate(-552.55 -24.51)"/><line class="cls-30" x1="218.41" y1="61.42" x2="218.41" y2="150.24"/><line class="cls-30" x1="228.89" y1="61.42" x2="228.89" y2="150.24"/><line class="cls-31" x1="218.41" y1="81.98" x2="228.29" y2="81.98"/><line class="cls-31" x1="218.41" y1="75.11" x2="228.29" y2="75.11"/><line class="cls-31" x1="218.41" y1="68.24" x2="228.29" y2="68.24"/><line class="cls-31" x1="218.41" y1="88.85" x2="228.29" y2="88.85"/><line class="cls-31" x1="218.41" y1="95.72" x2="228.29" y2="95.72"/><line class="cls-31" x1="218.41" y1="102.6" x2="228.29" y2="102.6"/><line class="cls-31" x1="218.41" y1="109.47" x2="228.29" y2="109.47"/><line class="cls-31" x1="218.41" y1="116.34" x2="228.29" y2="116.34"/><line class="cls-31" x1="218.41" y1="123.21" x2="228.29" y2="123.21"/><line class="cls-31" x1="218.41" y1="130.08" x2="228.29" y2="130.08"/><line class="cls-31" x1="218.41" y1="136.95" x2="228.29" y2="136.95"/><line class="cls-31" x1="218.41" y1="143.82" x2="228.29" y2="143.82"/><line class="cls-32" x1="109.1" y1="81.67" x2="109.1" y2="150.24"/><line class="cls-32" x1="119.58" y1="81.67" x2="119.58" y2="150.24"/><line class="cls-31" x1="109.1" y1="88.85" x2="118.99" y2="88.85"/><line class="cls-31" x1="109.1" y1="95.72" x2="118.99" y2="95.72"/><line class="cls-31" x1="109.1" y1="102.6" x2="118.99" y2="102.6"/><line class="cls-31" x1="109.1" y1="109.47" x2="118.99" y2="109.47"/><line class="cls-31" x1="109.1" y1="116.34" x2="118.99" y2="116.34"/><line class="cls-31" x1="109.1" y1="123.21" x2="118.99" y2="123.21"/><line class="cls-31" x1="109.1" y1="130.08" x2="118.99" y2="130.08"/><line class="cls-31" x1="109.1" y1="136.95" x2="118.99" y2="136.95"/><line class="cls-31" x1="109.1" y1="143.82" x2="118.99" y2="143.82"/><path class="cls-4" d="M804.57,86.36a.48.48,0,0,0,0-.12.62.62,0,0,0-.68-.54l-4.35.54a.61.61,0,1,0,.14,1.21l4.36-.53A.62.62,0,0,0,804.57,86.36Z" transform="translate(-552.55 -24.51)"/><path class="cls-20" d="M803.35,85.65s1.34-.91,1.51-.57,2.24,5.37,2,5.49c-.77.4-3.07-3.48-3.14-3.92S803.16,85.77,803.35,85.65Z" transform="translate(-552.55 -24.51)"/><path class="cls-4" d="M764.66,49s-2.26-2.19-3-2.09,1.12,2.43,3,2.86Z" transform="translate(-552.55 -24.51)"/><path class="cls-33" d="M764.13,48.46c-.27.42-.53.84-.77,1.27,6.82,4.09,10.51,5.49,18.37,3.9,1.21-.24,1.25-.7.89-1.64.16-.12.16-.11,0,0-.37-.93-.68-1-1.85-.7C773.12,52.92,771.14,51.51,764.13,48.46Z" transform="translate(-552.55 -24.51)"/><path class="cls-4" d="M780.32,104.83l.12,0a.6.6,0,0,0,.48-.71L780,99.8a.61.61,0,1,0-1.19.24l.87,4.3A.62.62,0,0,0,780.32,104.83Z" transform="translate(-552.55 -24.51)"/><path class="cls-22" d="M779,102.33a17.93,17.93,0,0,0,1.94-.18c-1.93-10.34-3.4-24.2,1.77-33.86-1.57-.77-3.14-1.52-4.73-2.27C774.19,74.44,777.4,93.44,779,102.33Z" transform="translate(-552.55 -24.51)"/><path class="cls-2" d="M802.22,87.58c-.08-.65-.18-1.29-.31-1.93-15.29,2-21.16-2.64-17.84-18.83-1.72-.47-3.46-.89-5.19-1.33C777.38,83.7,784.93,89.66,802.22,87.58Z" transform="translate(-552.55 -24.51)"/><path class="cls-23" d="M779.25,43.75a1.79,1.79,0,0,1,2,.15,1.34,1.34,0,0,1-.2,1.84,2.23,2.23,0,0,1-2.44,0C778.15,45.27,778.49,44.21,779.25,43.75Z" transform="translate(-552.55 -24.51)"/><path class="cls-23" d="M787.14,46.82a3.69,3.69,0,0,1,4-1.25,2.72,2.72,0,0,1,1.23,3.54A4.17,4.17,0,0,1,787.56,51C786.17,50.6,786.09,48.23,787.14,46.82Z" transform="translate(-552.55 -24.51)"/><path class="cls-23" d="M786.08,46.09a2.67,2.67,0,0,1,2.87-1,2,2,0,0,1,.84,2.62,3.3,3.3,0,0,1-3.33,1.44C785.5,48.79,785.31,47.14,786.08,46.09Z" transform="translate(-552.55 -24.51)"/><path class="cls-23" d="M781.74,44s1.88,1.45,3.1,1.32,1.84-.36,3,.71,2.21-.51,3,.94-1.49,5.14-4.06,3.76c-2.12-1.14-1.52-1.67-3-1.55a3.39,3.39,0,0,1-2.53-.84C780.42,47.58,781.74,44,781.74,44Z" transform="translate(-552.55 -24.51)"/><path class="cls-4" d="M783.3,46.77c0,1.84-1.29,3.34-2.41,3.34s-1.67-1.5-1.67-3.34.91-2.79,2-2.79S783.3,44.92,783.3,46.77Z" transform="translate(-552.55 -24.51)"/><path class="cls-4" d="M784.13,47.4c0,.43-.42,1-.74,1S783,48,783,47.6s.25-.83.56-.83A.55.55,0,0,1,784.13,47.4Z" transform="translate(-552.55 -24.51)"/><path class="cls-23" d="M783.57,45.59A3,3,0,0,0,782.25,44a2.16,2.16,0,0,0-3.09,1.28s-.17,1.19,1.28,1.27,1.14-.66,1.89,0,1.35.09,1.49.24Z" transform="translate(-552.55 -24.51)"/><path class="cls-20" d="M776.81,70.22a8.69,8.69,0,0,0,4-.92,8.34,8.34,0,0,1,3.34-.77c.26-3.7.87-13.43.29-15.23a6.65,6.65,0,0,0-2-3.17s-.82.72-1.43.67-1.33,2-2.17,3.38S777.31,56,778,58C778.34,58.89,776.66,68.94,776.81,70.22Z" transform="translate(-552.55 -24.51)"/><path class="cls-4" d="M783.21,47.76l-1.93-.18a33.83,33.83,0,0,0-.13,3.72c.08.29.56.43,1.08.3s.81-.4.82-.67h0A27.42,27.42,0,0,1,783.21,47.76Z" transform="translate(-552.55 -24.51)"/><path class="cls-20" d="M781.08,104s.38,1.57,0,1.61-5.81.21-5.84,0c-.11-.87,4.33-1.66,4.77-1.57S781,103.79,781.08,104Z" transform="translate(-552.55 -24.51)"/><path class="cls-4" d="M769.76,59.18s-2.56-2.09-3.37-1.92,1.39,2.44,3.37,2.73Z" transform="translate(-552.55 -24.51)"/><path class="cls-33" d="M769.48,58.87c-.21.45-.43.93-.64,1.33,7.95,3.69,13.8,4.43,15.79-5.34.3-1.5-.34-1.23-1-1.71-1.08.19-1.35,0-1.55,1.36C780.85,63.64,776.37,60.82,769.48,58.87Z" transform="translate(-552.55 -24.51)"/><path class="cls-4" d="M663.11,139.47H663a.64.64,0,0,1-.52-.74l.8-4.56a.65.65,0,0,1,1.27.23l-.81,4.55A.63.63,0,0,1,663.11,139.47Z" transform="translate(-552.55 -24.51)"/><path class="cls-20" d="M662.16,138.43s-.37,1.66,0,1.69,6.13.13,6.16-.14c.1-.91-4.6-1.67-5.05-1.57S662.21,138.18,662.16,138.43Z" transform="translate(-552.55 -24.51)"/><path class="cls-4" d="M687.26,91.22s3-1.46,3.73-1.1-1.92,2.07-3.92,1.9Z" transform="translate(-552.55 -24.51)"/><path class="cls-21" d="M687.41,90.76c.05.53.13,1,.19,1.56-8.2,1.23-12.74-.85-16.51-8.06-.58-1.1-.28-1.42.69-1.81,0-.19,0-.18,0,0,1-.38,1.25-.23,1.84.89C677.45,90.65,679.2,90.6,687.41,90.76Z" transform="translate(-552.55 -24.51)"/><path class="cls-4" d="M667.39,136.61l-.11-.08a.64.64,0,0,1-.06-.9l3-3.48a.64.64,0,0,1,.91-.06.66.66,0,0,1,.06.91l-3,3.47A.63.63,0,0,1,667.39,136.61Z" transform="translate(-552.55 -24.51)"/><path class="cls-22" d="M670.07,135.32c-.56-.43-1.09-.89-1.61-1.36,8.33-10.59,7-23.69.29-34.48l4.74-2.84C678.73,106.69,678.58,127.08,670.07,135.32Z" transform="translate(-552.55 -24.51)"/><path class="cls-2" d="M664.36,136.89c-.71,0-1.42-.11-2.13-.22,3.13-10,5.75-28.59,5.16-38.8,1.86-.1,3.71-.19,5.57-.2C672,109.9,667.34,124.69,664.36,136.89Z" transform="translate(-552.55 -24.51)"/><path class="cls-20" d="M667.11,135.47s-1.16,1.24-.84,1.47,5.21,3.23,5.37,3c.55-.73-3.1-3.78-3.55-3.93S667.28,135.28,667.11,135.47Z" transform="translate(-552.55 -24.51)"/><path class="cls-20" d="M667.11,98.39c2.28,1,5.84,2.31,6.75,1.06a3.42,3.42,0,0,1,.73-.74A46.15,46.15,0,0,0,674.33,85c-.55-3.07-2.4-3.62-2.51-3.66-2.13-.72-3.89.21-4.06,2.54a8.09,8.09,0,0,0,.37,2.23C669,90.42,668,94.2,667.11,98.39Z" transform="translate(-552.55 -24.51)"/><path class="cls-4" d="M661.94,102.72s.74,3.4.19,4.08-1.62-2.48-1-4.47Z" transform="translate(-552.55 -24.51)"/><path class="cls-21" d="M662.1,103.17c-.53.06-1.06.07-1.58.09-.37-10.15-.73-14.13,7.12-20.65,1.2-1,1.31-.64,1.94.27.24,0,.22,0,0,0,.63.9.68,1.14-.59,2.07C660.72,91.08,663.05,93.27,662.1,103.17Z" transform="translate(-552.55 -24.51)"/><path class="cls-4" d="M670,77c-.09,2,1.19,3.58,2.38,3.64s1.83-1.49,1.92-3.44-.82-3-2-3S670.13,75.09,670,77Z" transform="translate(-552.55 -24.51)"/><path class="cls-4" d="M669.92,77.79l2-.19a32.37,32.37,0,0,1,.14,3.92c-.07.31-.58.45-1.13.32s-.86-.42-.87-.7h0A28.48,28.48,0,0,0,669.92,77.79Z" transform="translate(-552.55 -24.51)"/><path class="cls-34" d="M674,79.21h-.08c-.4,0-2.24-.26-2.76.19s.88.27,1.41.06.82.08,1.16.2S674.41,79.51,674,79.21Z" transform="translate(-552.55 -24.51)"/><path class="cls-4" d="M669.13,77.66c0,.45.41,1,.73,1.07s.43-.35.45-.8-.22-.89-.55-.91A.6.6,0,0,0,669.13,77.66Z" transform="translate(-552.55 -24.51)"/><path class="cls-23" d="M669.82,75.78a3.17,3.17,0,0,1,1.46-1.63c1-.4,2.87-.24,3.19,1.5,0,0,.12,1.26-1.41,1.28s-1.17-.75-2-.1-1.42,0-1.58.18Z" transform="translate(-552.55 -24.51)"/><path class="cls-23" d="M670.52,78.07c.43-.09.49.31.84,1.06s1.46,1.42,2.52.1c.67-.84.14.94.14.94a1.63,1.63,0,0,1-1.63,1,3.21,3.21,0,0,1-2.52-2.1C670,78.66,670.23,78.13,670.52,78.07Z" transform="translate(-552.55 -24.51)"/><polygon class="cls-14" points="168.5 74.04 168.5 74.04 168.5 91.33 168.5 91.33 199.71 108.82 210.8 97.73 168.5 74.04"/><polygon class="cls-18" points="162.87 70.89 160.38 69.5 153.01 82.66 155.5 84.05 168.5 91.33 168.5 74.04 162.87 70.89"/><rect class="cls-4" x="700.02" y="95.4" width="15.7" height="8.84" transform="translate(588.32 -493.52) rotate(119.25)"/><path class="cls-2" d="M705.22,89.34l-1.48-.83A1.28,1.28,0,0,0,702,89l-2,3.64a1.25,1.25,0,0,1-1.73.46l-9.9-5.88a1.51,1.51,0,0,0-2,.39,1.45,1.45,0,0,0,.52,2.11l10.24,5.41a1.25,1.25,0,0,1,.5,1.71l-2,3.64a1.28,1.28,0,0,0,.49,1.73l1.47.82,1,.55,7.67-13.69ZM688.84,89a.68.68,0,1,1-.19-.67A.69.69,0,0,1,688.84,89Z" transform="translate(-552.55 -24.51)"/><rect class="cls-1" x="695.05" y="95.3" width="15.7" height="3.47" transform="translate(578.48 -493.33) rotate(119.25)"/><path class="cls-14" d="M703,96.77a.3.3,0,1,1-.41.12A.3.3,0,0,1,703,96.77Z" transform="translate(-552.55 -24.51)"/><path class="cls-14" d="M706.09,91.33a.3.3,0,1,1-.41.11A.31.31,0,0,1,706.09,91.33Z" transform="translate(-552.55 -24.51)"/><path class="cls-14" d="M700.09,102a.3.3,0,1,1-.41.11A.31.31,0,0,1,700.09,102Z" transform="translate(-552.55 -24.51)"/><path class="cls-4" d="M768.31,175.28h.13a.65.65,0,0,0,.51-.76L768,170a.65.65,0,0,0-.76-.51.66.66,0,0,0-.5.76l.92,4.53A.66.66,0,0,0,768.31,175.28Z" transform="translate(-552.55 -24.51)"/><path class="cls-20" d="M769.12,174.43s.4,1.65,0,1.69-6.13.22-6.16,0c-.12-.91,4.57-1.75,5-1.65S769.07,174.19,769.12,174.43Z" transform="translate(-552.55 -24.51)"/><path class="cls-4" d="M741.81,120.44s-1.82-2.77-2.65-2.85.6,2.76,2.41,3.63Z" transform="translate(-552.55 -24.51)"/><path class="cls-33" d="M741.92,120c-.32.43-.65.83-1,1.25,6.44,5.22,11.41,5.73,18.32,1.44,1.05-.66,1-1.08.32-1.91.08-.17.09-.16,0,0-.63-.82-1-.83-2-.17C750.55,124.93,749.07,124,741.92,120Z" transform="translate(-552.55 -24.51)"/><path class="cls-4" d="M757.11,175.28h.13a.65.65,0,0,0,.5-.76l-.93-4.53a.64.64,0,0,0-.75-.51.66.66,0,0,0-.51.76l.93,4.53A.64.64,0,0,0,757.11,175.28Z" transform="translate(-552.55 -24.51)"/><path class="cls-22" d="M755.69,172.64a15.61,15.61,0,0,0,2-.18c-2-10.9-3.58-25.52,1.87-35.7q-2.49-1.22-5-2.39C750.64,143.24,754,163.27,755.69,172.64Z" transform="translate(-552.55 -24.51)"/><path class="cls-2" d="M767,172.34c.68-.21,1.36-.42,2-.69-5.1-10-8.83-25.65-7.94-37-1.85-.1-3.71-.16-5.56-.21C756.18,145.8,762.56,162.1,767,172.34Z" transform="translate(-552.55 -24.51)"/><path class="cls-20" d="M757.91,174.43s.4,1.65,0,1.69-6.13.22-6.16,0c-.12-.91,4.57-1.75,5-1.65S757.86,174.19,757.91,174.43Z" transform="translate(-552.55 -24.51)"/><path class="cls-20" d="M761.3,137.83a13.21,13.21,0,0,0-4.4-.79,21,21,0,0,0-3.65.12c3.92-8.4,4.59-12.58,4.24-14.94a3.24,3.24,0,0,1,1.22-3.07l.37-.29a2.91,2.91,0,0,1,4.62,1.74A17.62,17.62,0,0,1,764,123,33.4,33.4,0,0,1,761.3,137.83Z" transform="translate(-552.55 -24.51)"/><path class="cls-4" d="M762,115.25c-.73,1.8-2.58,2.75-3.68,2.3s-1-2.12-.3-3.93,2-2.35,3.1-1.9S762.76,113.44,762,115.25Z" transform="translate(-552.55 -24.51)"/><path class="cls-4" d="M762.58,116.2c-.17.42-.8.78-1.11.66s-.24-.5-.07-.92.58-.71.88-.58A.58.58,0,0,1,762.58,116.2Z" transform="translate(-552.55 -24.51)"/><path class="cls-23" d="M762.75,114.2a3.14,3.14,0,0,0-.64-2.09c-.73-.78-2.5-1.42-3.53,0,0,0-.64,1.1.75,1.75s1.37-.19,1.84.75,1.28.62,1.36.83Z" transform="translate(-552.55 -24.51)"/><path class="cls-4" d="M761.71,115.31l-2-.2a32.55,32.55,0,0,0-.14,3.93c.07.31.58.45,1.13.32s.86-.43.87-.71h0A28.28,28.28,0,0,1,761.71,115.31Z" transform="translate(-552.55 -24.51)"/><path class="cls-23" d="M761.15,116c-.35-.26-.57.08-1.21.61s-1.91.68-2.32-1c-.26-1-.52.8-.52.8a1.61,1.61,0,0,0,1,1.63,3.19,3.19,0,0,0,3.17-.85C761.4,116.75,761.4,116.16,761.15,116Z" transform="translate(-552.55 -24.51)"/><path class="cls-23" d="M757.55,115.58l.08,0c.38.12,2.14.71,2.42,1.33s-.9-.12-1.31-.53-.76-.28-1.12-.31S757,115.66,757.55,115.58Z" transform="translate(-552.55 -24.51)"/><path class="cls-5" d="M754.24,128.78c0,.23,0,.45,0,.67a10,10,0,0,1-.5,2.52,9.1,9.1,0,0,1-.51,1.25,10.24,10.24,0,0,1-1.47,2.21,9.47,9.47,0,0,1-1,.95,10.18,10.18,0,0,1-2.13,1.43,10.65,10.65,0,0,1-1.25.53,10.08,10.08,0,0,1-2.6.52c-.22,0-.45,0-.67,0s-.46,0-.68,0a10.42,10.42,0,0,1-2.52-.49,12.39,12.39,0,0,1-1.24-.51,10.48,10.48,0,0,1-2.22-1.48,10.65,10.65,0,0,1-1-.95,10.31,10.31,0,0,1-1.43-2.13,9,9,0,0,1-.52-1.24,9.45,9.45,0,0,1-.52-2.61c0-.22,0-.44,0-.67s0-.46,0-.68a9.47,9.47,0,0,1,.49-2.51,9.1,9.1,0,0,1,.51-1.25,9.78,9.78,0,0,1,1.47-2.21,12.3,12.3,0,0,1,1-1,10.59,10.59,0,0,1,2.13-1.43,9.14,9.14,0,0,1,1.25-.52,9.31,9.31,0,0,1,2.6-.52c.22,0,.45,0,.68,0s.45,0,.67,0a10,10,0,0,1,3.77,1,10.24,10.24,0,0,1,2.21,1.47,10.76,10.76,0,0,1,1,1,10.24,10.24,0,0,1,1.43,2.12,9.14,9.14,0,0,1,.52,1.25,9.77,9.77,0,0,1,.53,2.6C754.23,128.32,754.24,128.55,754.24,128.78Z" transform="translate(-552.55 -24.51)"/><path class="cls-35" d="M747.57,129.45l4.91,2,1.24.51a9.1,9.1,0,0,1-.51,1.25l-1.24-.51-5-2,4.76,4.76a9.47,9.47,0,0,1-1,.95l-.95-.94-3.75-3.76,2,4.9.52,1.23a10.65,10.65,0,0,1-1.25.53l-.51-1.23-2.09-5v6.73c-.22,0-.45,0-.67,0s-.46,0-.68,0v-6.65l-2,4.92-.51,1.24a12.39,12.39,0,0,1-1.24-.51l.5-1.24,2-5-3.81,3.82-.95.94a10.65,10.65,0,0,1-1-.95l.94-1,3.76-3.75-4.9,2.05-1.23.52a9,9,0,0,1-.52-1.24l1.23-.52,5-2.09h-6.72c0-.22,0-.44,0-.67s0-.46,0-.68h6.64l-4.92-2-1.23-.5a9.1,9.1,0,0,1,.51-1.25l1.24.5,5,2-3.82-3.81-.94-.94a12.3,12.3,0,0,1,1-1l4.7,4.7-2-4.9-.52-1.23a9.14,9.14,0,0,1,1.25-.52l.51,1.23,2.09,5V118.7c.22,0,.45,0,.68,0s.45,0,.67,0v6.64l2-4.91.51-1.24a9.64,9.64,0,0,1,1.25.51l-.51,1.24-2,5,3.81-3.81.95-1a10.76,10.76,0,0,1,1,1l-.94.94L747,126.83l4.9-2.06,1.23-.52a9.14,9.14,0,0,1,.52,1.25l-1.23.52-5,2.08h6.73c0,.22,0,.45,0,.68s0,.45,0,.67Z" transform="translate(-552.55 -24.51)"/><circle class="cls-36" cx="191.59" cy="104.27" r="8.77"/><circle class="cls-35" cx="191.59" cy="104.27" r="8.28"/><path class="cls-36" d="M743.67,134.39V133a4,4,0,0,1-2.09-.6l.33-.92a3.62,3.62,0,0,0,2,.59c1,0,1.62-.56,1.62-1.34s-.53-1.22-1.54-1.63c-1.4-.54-2.26-1.17-2.26-2.36a2.24,2.24,0,0,1,2.07-2.2v-1.39h.84v1.33a3.73,3.73,0,0,1,1.78.48l-.34.9a3.37,3.37,0,0,0-1.72-.46c-1.06,0-1.45.63-1.45,1.17,0,.71.5,1.07,1.69,1.56,1.41.58,2.12,1.29,2.12,2.5a2.38,2.38,0,0,1-2.16,2.33v1.42Z" transform="translate(-552.55 -24.51)"/><path class="cls-4" d="M751.05,130.22s-3-1.69-3.86-1.36,1.9,2.27,4,2.2Z" transform="translate(-552.55 -24.51)"/><path class="cls-33" d="M750.45,129.66c-.13.53-.26,1.05-.39,1.53,8.72,2.11,15.53.53,13.51-9.73-.31-1.57-.63-1.24-1.56-1.09-.22-.12-.14-.11,0,0-.93.15-1.46.34-1.06,1.75C763.53,131.35,757.42,130.08,750.45,129.66Z" transform="translate(-552.55 -24.51)"/><rect class="cls-2" x="86.44" y="128.88" width="18.53" height="22.7"/><circle class="cls-28" cx="95.33" cy="128.24" r="8.13"/><path class="cls-18" d="M654.51,153.39h-10.8v.52a1.83,1.83,0,0,0,1.82,1.83h0a.7.7,0,0,1,.7.7h0a.83.83,0,0,0,.83.82h0a.82.82,0,0,0,.82-.82v-.31a.39.39,0,0,1,.4-.39h0a.39.39,0,0,1,.39.39v4.54a1.39,1.39,0,0,0,1.39,1.39h0a1.39,1.39,0,0,0,1.39-1.39v-3a1.9,1.9,0,0,1,1.9-1.9h0a1.16,1.16,0,0,0,1.16-1.16Z" transform="translate(-552.55 -24.51)"/><polygon class="cls-37" points="188.08 147.01 168.37 151.06 168.37 131.35 188.08 127.3 188.08 147.01"/><polygon class="cls-10" points="198.67 133.67 178.96 137.73 168.37 131.35 188.08 127.3 198.67 133.67"/><rect class="cls-10" x="235.56" y="135.14" width="18.78" height="14.34"/><rect class="cls-19" x="234.86" y="135.14" width="20.18" height="3.79"/><rect class="cls-14" x="243.56" y="135.14" width="2.78" height="14.34"/><rect class="cls-1" x="238.51" y="141.02" width="3.7" height="2"/><rect class="cls-10" x="237.41" y="120.8" width="18.78" height="14.34"/><rect class="cls-19" x="236.71" y="120.8" width="20.18" height="3.79"/><rect class="cls-14" x="245.41" y="120.8" width="2.78" height="14.34"/><rect class="cls-1" x="240.36" y="129.91" width="3.7" height="2"/><rect class="cls-10" x="234.67" y="106.46" width="18.78" height="14.34"/><rect class="cls-19" x="233.97" y="106.46" width="20.18" height="3.79"/><rect class="cls-14" x="242.67" y="106.46" width="2.78" height="14.34"/><rect class="cls-1" x="237.62" y="112.35" width="3.7" height="2"/><rect class="cls-1" x="237.62" y="115.34" width="3.7" height="2"/><path class="cls-14" d="M783.33,173a3,3,0,0,0-4.24,4.24l4.55,4.55v-8.48Z" transform="translate(-552.55 -24.51)"/><path class="cls-15" d="M784,173a3,3,0,0,1,4.24,4.24l-4.55,4.55v-8.48Z" transform="translate(-552.55 -24.51)"/><path class="cls-2" d="M716.69,121.7a1.34,1.34,0,0,0-1.9,1.9l2,2v-3.8Z" transform="translate(-552.55 -24.51)"/><path class="cls-22" d="M717,121.7a1.34,1.34,0,1,1,1.9,1.9l-2,2v-3.8Z" transform="translate(-552.55 -24.51)"/><path class="cls-2" d="M728.77,108.16a1.35,1.35,0,0,0-1.9,0,1.33,1.33,0,0,0,0,1.9l2,2v-3.8Z" transform="translate(-552.55 -24.51)"/><path class="cls-22" d="M729,108.16a1.35,1.35,0,0,1,1.9,0,1.33,1.33,0,0,1,0,1.9l-2,2v-3.8Z" transform="translate(-552.55 -24.51)"/><path class="cls-2" d="M709.58,79.76a1.34,1.34,0,0,0-1.9,1.9l2,2V79.9Z" transform="translate(-552.55 -24.51)"/><path class="cls-22" d="M709.86,79.76a1.34,1.34,0,0,1,1.9,1.9l-2,2V79.9Z" transform="translate(-552.55 -24.51)"/><path class="cls-2" d="M704.27,66.74s-1.83-1.17-2.9.26-2.49,4.57-2.21,5.74,1.22.66,1.66,0,1.4-3.6,2-4.15a10.16,10.16,0,0,1,3.48-1.2C707.07,67.29,704.27,66.74,704.27,66.74Z" transform="translate(-552.55 -24.51)"/><path class="cls-2" d="M707.52,68.19s-1.83-1.17-2.9.26-2.49,4.57-2.21,5.74,1.22.66,1.66,0,1.4-3.6,2-4.15a10.16,10.16,0,0,1,3.48-1.2C710.32,68.74,707.52,68.19,707.52,68.19Z" transform="translate(-552.55 -24.51)"/><path class="cls-2" d="M706.77,58.82a6.9,6.9,0,0,1,2.44-.84c.65.11-1.2,2.31-1.65,2.21S706.77,58.82,706.77,58.82Z" transform="translate(-552.55 -24.51)"/><path class="cls-2" d="M705.67,58.29s1.55-1.3,2.21-1.33-.69,2.51-1.16,2.51S705.67,58.29,705.67,58.29Z" transform="translate(-552.55 -24.51)"/><circle class="cls-4" cx="99.79" cy="54.07" r="2.06"/><circle class="cls-4" cx="108.73" cy="51.88" r="2.99"/><path class="cls-4" d="M694.22,81.22a1.93,1.93,0,0,1,3.85,0,1.93,1.93,0,1,1-3.85,0Z" transform="translate(-552.55 -24.51)"/><circle class="cls-4" cx="186.45" cy="73.48" r="3.16"/><circle class="cls-4" cx="194.28" cy="78.35" r="2.22"/><circle class="cls-4" cx="273.85" cy="110.38" r="3.16"/><circle class="cls-4" cx="89.62" cy="103.23" r="3.16"/><circle class="cls-4" cx="269.01" cy="117.48" r="2.22"/></svg>